HIERARCHY
ROOT Hips
{
	OFFSET -0.001795 -0.223333 0.028219
	CHANNELS 6 Xposition Yposition Zposition Zrotation Yrotation Xrotation 
	JOINT LeftUpLeg
	{
		OFFSET 0.069520 -0.091406 -0.006815
		CHANNELS 3 Zrotation Yrotation Xrotation
		JOINT LeftLeg
		{
			OFFSET 0.034277 -0.375199 -0.004496
			CHANNELS 3 Zrotation Yrotation Xrotation
			JOINT LeftFoot
			{
				OFFSET -0.013596 -0.397961 -0.043693
				CHANNELS 3 Zrotation Yrotation Xrotation
				JOINT LeftToe
				{
					OFFSET 0.026358 -0.055791 0.119288
					CHANNELS 3 Zrotation Yrotation Xrotation
					End Site
					{
						OFFSET 0.000000 0.000000 0.000000
					}
				}
			}
		}
	}
	JOINT RightUpLeg
	{
		OFFSET -0.067670 -0.090522 -0.004320
		CHANNELS 3 Zrotation Yrotation Xrotation
		JOINT RightLeg
		{
			OFFSET -0.038290 -0.382569 -0.008850
			CHANNELS 3 Zrotation Yrotation Xrotation
			JOINT RightFoot
			{
				OFFSET 0.015774 -0.398415 -0.042312
				CHANNELS 3 Zrotation Yrotation Xrotation
				JOINT RightToe
				{
					OFFSET -0.025372 -0.048144 0.123348
					CHANNELS 3 Zrotation Yrotation Xrotation
					End Site
					{
						OFFSET 0.000000 0.000000 0.000000
					}
				}
			}
		}
	}
	JOINT Spine
	{
		OFFSET -0.002533 0.108963 -0.026696
		CHANNELS 3 Zrotation Yrotation Xrotation
		JOINT Spine1
		{
			OFFSET 0.005487 0.135180 0.001092
			CHANNELS 3 Zrotation Yrotation Xrotation
			JOINT Spine2
			{
				OFFSET 0.001457 0.052922 0.025425
				CHANNELS 3 Zrotation Yrotation Xrotation
				JOINT Neck
				{
					OFFSET -0.002778 0.213870 -0.042857
					CHANNELS 3 Zrotation Yrotation Xrotation
					JOINT Head
					{
						OFFSET 0.005152 0.064970 0.051349
						CHANNELS 3 Zrotation Yrotation Xrotation
						End Site
						{
							OFFSET 0.000000 0.000000 0.000000
						}
					}
				}
				JOINT LeftShoulder
				{
					OFFSET 0.078845 0.121749 -0.034090
					CHANNELS 3 Zrotation Yrotation Xrotation
					JOINT LeftArm
					{
						OFFSET 0.090977 0.030469 -0.008868
						CHANNELS 3 Zrotation Yrotation Xrotation
						JOINT LeftForeArm
						{
							OFFSET 0.259612 -0.012772 -0.027456
							CHANNELS 3 Zrotation Yrotation Xrotation
							JOINT LeftHand
							{
								OFFSET 0.249234 0.008986 -0.001171
								CHANNELS 3 Zrotation Yrotation Xrotation
								End Site
								{
									OFFSET 0.000000 0.000000 0.000000
								}
							}
						}
					}
				}
				JOINT RightShoulder
				{
					OFFSET -0.081759 0.118833 -0.038615
					CHANNELS 3 Zrotation Yrotation Xrotation
					JOINT RightArm
					{
						OFFSET -0.096012 0.032551 -0.009143
						CHANNELS 3 Zrotation Yrotation Xrotation
						JOINT RightForeArm
						{
							OFFSET -0.253742 -0.013329 -0.021401
							CHANNELS 3 Zrotation Yrotation Xrotation
							JOINT RightHand
							{
								OFFSET -0.255298 0.007772 -0.005559
								CHANNELS 3 Zrotation Yrotation Xrotation
								End Site
								{
									OFFSET 0.000000 0.000000 0.000000
								}
							}
						}
					}
				}
			}
		}
	}
}
MOTION
Frames: 13
Frame Time: 0.050000
0.006246 0.958281 -0.018675 -1.822097 -0.543226 1.502041 6.069873 0.108456 5.222994 -2.781281 0.394488 -9.135666 -0.987417 4.771987 17.680107 0.000000 0.000000 0.000000 -2.937249 -0.392589 6.367688 3.313528 -0.442771 -9.542845 -2.997743 -12.085835 19.585502 0.000000 0.000000 0.000000 -3.882128 0.058776 -0.666370 5.738964 -0.995839 -21.306522 1.208226 6.086914 28.981865 8.825750 -2.427970 -27.440402 0.000000 0.000000 0.000000 -23.860357 3.615868 -5.426593 -52.166147 -3.823759 -6.680189 -18.740580 -21.746436 4.501502 0.000000 0.000000 0.000000 2.655686 11.406970 4.397662 25.006347 44.000201 4.253260 -115.173890 58.199201 -72.464867 0.000000 0.000000 0.000000 
0.006158 0.958839 -0.019075 -1.757635 -0.392563 1.468233 6.065184 0.096708 4.971009 -2.857296 0.391361 -8.728183 -1.073359 4.685018 17.738710 0.000000 0.000000 0.000000 -2.995754 -0.387534 6.332640 3.332768 -0.444521 -9.435596 -3.055674 -12.179414 19.720352 0.000000 0.000000 0.000000 -4.088663 0.058924 -0.569074 6.017098 -1.062687 -21.367999 1.090117 6.112327 29.199685 8.879181 -2.440940 -27.490738 0.000000 0.000000 0.000000 -23.892779 3.308454 -5.277769 -52.124405 -4.536654 -6.396136 -19.204406 -22.619828 4.784211 0.000000 0.000000 0.000000 2.758482 11.465400 4.440722 23.720081 43.716344 3.782250 -114.746880 55.316546 -68.549404 0.000000 0.000000 0.000000 
0.006050 0.959131 -0.019476 -1.694221 -0.107923 1.369910 6.148374 0.085772 4.921346 -3.059774 0.394084 -8.588559 -1.246020 4.492097 17.798512 0.000000 0.000000 0.000000 -3.054961 -0.402851 6.540865 3.383900 -0.451059 -9.598886 -3.162865 -12.331938 19.882137 0.000000 0.000000 0.000000 -4.285738 0.058164 -0.490667 6.169314 -1.118571 -21.137298 1.119718 6.075387 29.099117 8.894391 -2.415303 -27.572970 0.000000 0.000000 0.000000 -24.109744 3.070058 -5.226855 -51.974694 -5.295360 -6.038075 -19.203572 -23.535782 4.978111 0.000000 0.000000 0.000000 2.724635 11.542699 4.471706 22.355740 43.489350 3.340725 -112.879614 53.085129 -64.072598 0.000000 0.000000 0.000000 
0.005901 0.959640 -0.019901 -1.604407 0.315618 1.345170 6.118117 0.071565 4.706113 -3.088317 0.388736 -8.348838 -1.476712 4.241232 17.882642 0.000000 0.000000 0.000000 -3.037500 -0.413809 6.579229 3.362886 -0.454143 -9.355184 -3.384828 -12.567364 19.510748 0.000000 0.000000 0.000000 -4.449784 0.057544 -0.380846 6.508038 -1.217090 -20.987870 0.933834 6.321477 28.931804 9.292570 -2.567967 -27.533645 0.000000 0.000000 0.000000 -24.267667 2.606735 -5.157209 -51.978108 -5.746466 -5.786759 -19.138562 -24.129193 5.058578 0.000000 0.000000 0.000000 2.871226 11.774215 4.606572 20.439574 43.279140 2.779170 -110.256213 50.543262 -58.535027 0.000000 0.000000 0.000000 
0.005674 0.960054 -0.020448 -1.450856 0.846318 1.240374 6.192605 0.049828 4.458572 -3.394735 0.392421 -7.941090 -1.773090 3.902886 17.935956 0.000000 0.000000 0.000000 -3.084557 -0.449802 6.991455 3.359857 -0.463195 -9.552869 -3.589706 -12.768685 19.160497 0.000000 0.000000 0.000000 -4.660830 0.056027 -0.153401 6.454467 -1.189833 -21.043009 1.122153 6.506730 28.904395 9.264960 -2.457384 -27.613973 0.000000 0.000000 0.000000 -24.448644 2.271589 -5.168989 -51.984024 -6.187907 -5.548882 -18.964927 -24.850671 5.144134 0.000000 0.000000 0.000000 2.535891 12.070224 4.689812 18.742133 43.423806 2.366221 -106.518964 48.236181 -52.523361 0.000000 0.000000 0.000000 
0.005395 0.960734 -0.021250 -1.412070 1.244678 1.177063 6.295512 0.026968 4.166669 -3.550247 0.392853 -7.526621 -1.994636 3.669669 18.033744 0.000000 0.000000 0.000000 -3.163717 -0.469508 7.244402 3.529066 -0.473031 -9.522463 -3.548678 -12.584934 18.698800 0.000000 0.000000 0.000000 -4.769242 0.054855 0.121728 6.274153 -1.140290 -20.963332 1.266302 7.058831 28.559350 9.572682 -2.450186 -27.872643 0.000000 0.000000 0.000000 -24.226164 1.833103 -5.146405 -52.124961 -6.636292 -5.272237 -17.962264 -24.826633 4.851779 0.000000 0.000000 0.000000 2.009174 12.778532 4.898513 16.435665 43.917261 1.884713 -100.718744 44.778553 -44.063470 0.000000 0.000000 0.000000 
0.005019 0.961365 -0.022360 -1.262016 1.962970 0.979004 6.172144 0.018939 4.037038 -3.464027 0.381689 -7.265068 -2.392717 3.238259 18.153563 0.000000 0.000000 0.000000 -3.267060 -0.501536 7.599765 3.706137 -0.488843 -9.633400 -3.931168 -13.116427 18.762692 0.000000 0.000000 0.000000 -5.063824 0.053902 0.586967 6.119360 -1.076436 -21.105163 1.509324 7.584231 28.416257 9.735744 -2.348823 -28.077780 0.000000 0.000000 0.000000 -24.259553 1.507096 -5.294839 -52.111997 -6.996947 -5.014604 -17.324330 -24.801656 4.636064 0.000000 0.000000 0.000000 0.968783 13.607300 5.043332 13.075380 44.873635 1.145938 -93.252186 40.845884 -35.099197 0.000000 0.000000 0.000000 
0.004558 0.962327 -0.023749 -1.058760 2.121683 0.875069 5.922420 0.036373 4.160138 -3.346515 0.375829 -7.483229 -2.569896 3.139805 18.547995 0.000000 0.000000 0.000000 -3.722168 -0.492452 7.969454 4.179972 -0.506945 -10.064052 -3.815869 -12.933513 18.912148 0.000000 0.000000 0.000000 -5.189834 0.054357 0.834765 6.178200 -1.078526 -21.256846 1.760052 8.943298 28.290414 10.252870 -2.379043 -28.212672 0.000000 0.000000 0.000000 -24.550236 0.579937 -5.318660 -52.026174 -6.946126 -4.860191 -16.333778 -24.150473 4.204998 0.000000 0.000000 0.000000 -0.324249 15.108250 5.346538 8.265317 45.752073 -0.028351 -84.733029 36.020432 -26.241158 0.000000 0.000000 0.000000 
0.003942 0.962881 -0.025192 -0.882029 2.650373 0.602413 5.781139 0.038371 4.136949 -3.290756 0.368018 -7.233873 -2.880696 2.818289 18.678072 0.000000 0.000000 0.000000 -3.742521 -0.513983 8.112544 4.124163 -0.512631 -9.835746 -4.185527 -13.473637 18.990628 0.000000 0.000000 0.000000 -5.357896 0.054437 1.590640 5.594683 -0.915875 -21.212802 2.098445 10.208326 27.527004 10.780431 -2.411895 -28.165195 0.000000 0.000000 0.000000 -24.327842 0.215776 -5.617301 -51.714029 -7.106425 -4.548514 -15.546406 -23.186442 3.765000 0.000000 0.000000 0.000000 -1.923234 16.399249 5.461613 2.650942 47.414568 -1.488805 -74.644282 29.883146 -17.527369 0.000000 0.000000 0.000000 
0.003034 0.963691 -0.026680 -0.736689 2.348257 0.513262 5.422529 0.075675 4.379854 -2.892909 0.357507 -7.569029 -2.808681 3.007660 19.050582 0.000000 0.000000 0.000000 -3.957068 -0.511921 8.433169 4.192611 -0.511885 -10.202847 -3.765142 -12.807753 18.744718 0.000000 0.000000 0.000000 -5.026839 0.047736 1.917873 5.360176 -0.835877 -21.525264 2.170282 12.410297 27.499913 12.055713 -2.778239 -28.336730 0.000000 0.000000 0.000000 -24.178984 -0.749787 -5.723078 -51.305045 -6.823520 -4.423611 -14.634685 -21.772046 3.251726 0.000000 0.000000 0.000000 -4.223652 18.178895 5.471906 -3.897148 48.270096 -3.305393 -63.033757 22.987517 -10.153263 0.000000 0.000000 0.000000 
0.001792 0.964154 -0.028149 -0.568035 2.998075 0.390917 5.301724 0.070470 4.300479 -2.778254 0.347086 -7.546051 -3.182677 2.638169 19.233879 0.000000 0.000000 0.000000 -3.674591 -0.560674 8.541285 3.966145 -0.515152 -10.030794 -4.476452 -13.844008 18.437002 0.000000 0.000000 0.000000 -5.198008 0.049282 2.408045 4.631887 -0.631897 -21.471694 2.455483 13.480445 26.782227 12.546160 -2.716924 -28.768086 0.000000 0.000000 0.000000 -23.388567 -0.908350 -5.939128 -51.798560 -6.949807 -4.275821 -13.139378 -20.266341 2.690448 0.000000 0.000000 0.000000 -7.344119 19.760716 5.107182 -9.312605 49.791041 -4.882182 -52.320898 14.791825 -4.466472 0.000000 0.000000 0.000000 
0.000271 0.965042 -0.029637 -0.383381 2.999142 0.299869 5.209078 0.087367 4.533565 -2.806805 0.350809 -7.944832 -3.305529 2.634477 19.712096 0.000000 0.000000 0.000000 -3.537515 -0.582584 8.659208 3.770172 -0.513885 -10.373700 -4.844377 -14.483882 18.865197 0.000000 0.000000 0.000000 -4.994442 0.043576 3.096370 4.267697 -0.503762 -21.970018 2.328307 15.677906 26.773123 13.777100 -2.957506 -29.268054 0.000000 0.000000 0.000000 -23.041167 -1.797588 -6.103208 -51.108111 -7.125019 -3.927470 -11.637933 -18.186937 2.102647 0.000000 0.000000 0.000000 -9.566570 20.853737 4.709999 -15.136410 50.455316 -6.549816 -42.702912 7.860978 -1.196950 0.000000 0.000000 0.000000 
-0.001270 0.965400 -0.030956 -0.239216 3.548133 0.566455 5.134520 0.063685 4.140831 -2.720037 0.342919 -8.074364 -3.613540 2.367034 19.946665 0.000000 0.000000 0.000000 -3.427095 -0.582027 8.408819 3.657985 -0.515025 -10.031730 -4.998561 -14.588630 18.037310 0.000000 0.000000 0.000000 -4.940667 0.044608 3.405817 3.432558 -0.261365 -22.159700 2.389382 16.655969 26.334687 14.165339 -2.864477 -29.675542 0.000000 0.000000 0.000000 -22.514907 -2.239933 -6.168820 -51.278876 -7.305282 -3.740850 -10.654563 -17.091286 1.788819 0.000000 0.000000 0.000000 -12.113585 21.569844 4.093862 -18.659315 50.734769 -7.413950 -34.788479 2.972761 0.313287 0.000000 0.000000 0.000000 
